<svg xmlns="http://www.w3.org/2000/svg" width="1902" height="1024">
  <path d="M694.857 128 823 250.083l-237.857-.141v592.315h621.714v-226.47l128 121.947V128.001h-640zm506.375 473.457L837.899 255.305h363.333v346.152zm-112.81 154.158H683.521V357.253h28.621V728.64h376.28v26.975zM764.268 951.974l-15.089-31.027h-12.454l21.873 41.072v23.929h11.295v-23.929l21.875-41.072h-12.411l-15.089 31.027zm55.625-31.027h2.679l24.552 65h-11.785l-5.259-15.223h-25.163l-5.248 15.223h-11.741l24.464-65h7.501zm-11.913 40.894h19.03l-9.525-27.575-9.505 27.575zm78.55-10.77c-.49-.624-.962-1.229-1.413-1.819-1.668-2.203-2.962-4.33-3.884-6.384-.923-2.085-1.384-4.228-1.384-6.429 0-3.392.699-6.309 2.097-8.75s3.379-4.315 5.939-5.625c2.558-1.34 5.55-2.01 8.973-2.01 3.302 0 6.146.669 8.527 2.01 2.41 1.309 4.255 3.05 5.535 5.222 1.309 2.172 1.964 4.553 1.964 7.142 0 2.053-.371 3.93-1.115 5.627a16.389 16.389 0 0 1-3.081 4.643c-1.309 1.399-2.827 2.723-4.553 3.973l-4.515 3.286 12.871 15.19c.424-.834.808-1.712 1.152-2.628 1.103-2.858 1.653-6.027 1.653-9.51h9.285c0 3.156-.313 6.146-.938 8.975-.594 2.827-1.562 5.445-2.902 7.856a23.12 23.12 0 0 1-1.843 2.869l9.521 11.238h-12.454l-3.778-4.443a25.319 25.319 0 0 1-6.669 3.641c-3.154 1.13-6.517 1.697-10.088 1.697-4.317 0-8.051-.79-11.205-2.366-3.156-1.578-5.595-3.75-7.322-6.519-1.697-2.768-2.545-5.937-2.545-9.509 0-2.65.55-4.97 1.651-6.965 1.103-2.022 2.606-3.899 4.509-5.625 1.759-1.596 3.763-3.191 6.012-4.787zm5.334 6.532-1.346.978c-1.578 1.28-2.754 2.516-3.527 3.707-.744 1.161-1.234 2.233-1.472 3.215-.24.982-.358 1.845-.358 2.589 0 1.904.402 3.63 1.205 5.179.834 1.547 2.039 2.781 3.617 3.705 1.607.892 3.557 1.339 5.848 1.339 2.47 0 4.866-.55 7.188-1.651a19.44 19.44 0 0 0 3.31-2.048l-14.464-17.011zm2.569-11.873 3.986-2.684c1.876-1.249 3.215-2.47 4.019-3.661.803-1.22 1.205-2.737 1.205-4.553 0-1.547-.596-2.975-1.787-4.286-1.19-1.309-2.873-1.964-5.045-1.964-1.518 0-2.798.357-3.838 1.072a6.494 6.494 0 0 0-2.366 2.768c-.507 1.13-.759 2.395-.759 3.794 0 1.339.342 2.723 1.026 4.151.686 1.399 1.622 2.873 2.812 4.42.243.311.492.624.746.944zm113.719 19.057H996.99c-.327 2.827-1.011 5.222-2.053 7.188-1.011 1.935-2.514 3.407-4.507 4.42-1.966 1.011-4.539 1.518-7.724 1.518-2.619 0-4.866-.521-6.742-1.563-1.874-1.04-3.421-2.514-4.643-4.42-1.19-1.904-2.083-4.182-2.677-6.83-.567-2.679-.848-5.656-.848-8.929v-5.491c0-3.452.313-6.517.936-9.196.655-2.708 1.622-4.985 2.902-6.832 1.28-1.845 2.873-3.244 4.778-4.195 1.904-.953 4.136-1.43 6.696-1.43 3.125 0 5.654.536 7.589 1.607 1.935 1.042 3.394 2.56 4.376 4.553 1.011 1.995 1.666 4.39 1.964 7.188h11.16c-.446-4.345-1.666-8.199-3.661-11.562-1.964-3.363-4.731-5.998-8.304-7.901-3.571-1.905-7.945-2.858-13.124-2.858-4.078 0-7.753.715-11.028 2.143a23.136 23.136 0 0 0-8.347 6.206c-2.322 2.677-4.107 5.906-5.358 9.686-1.22 3.78-1.83 8.007-1.83 12.679v5.402c0 4.672.596 8.9 1.787 12.679 1.22 3.78 2.977 7.009 5.268 9.688a23.8 23.8 0 0 0 8.258 6.16c3.215 1.428 6.832 2.143 10.849 2.143 5.239 0 9.688-.953 13.349-2.858s6.502-4.509 8.527-7.812c2.024-3.333 3.215-7.13 3.571-11.385zm62.008-9.554v-3.571c0-4.91-.655-9.3-1.964-13.169-1.28-3.899-3.11-7.217-5.491-9.955-2.381-2.768-5.222-4.866-8.527-6.296-3.304-1.457-6.965-2.187-10.982-2.187-3.988 0-7.634.73-10.937 2.187-3.275 1.43-6.117 3.527-8.527 6.296-2.383 2.737-4.228 6.056-5.537 9.955-1.309 3.869-1.964 8.26-1.964 13.169v3.571c0 4.912.655 9.317 1.964 13.215 1.34 3.899 3.215 7.217 5.625 9.955 2.412 2.739 5.253 4.837 8.527 6.296 3.304 1.428 6.95 2.143 10.939 2.143 4.017 0 7.678-.715 10.982-2.143a23.612 23.612 0 0 0 8.481-6.296c2.381-2.737 4.211-6.056 5.491-9.955s1.92-8.304 1.92-13.215zm-11.205-3.661v3.661c0 3.632-.357 6.846-1.072 9.644-.684 2.798-1.695 5.164-3.035 7.099-1.339 1.904-2.975 3.348-4.91 4.33-1.935.953-4.153 1.428-6.652 1.428-2.47 0-4.672-.475-6.607-1.428-1.935-.982-3.602-2.427-5.001-4.33-1.368-1.935-2.41-4.301-3.125-7.099-.713-2.798-1.072-6.012-1.072-9.644v-3.661c0-3.63.358-6.83 1.072-9.598.715-2.798 1.741-5.133 3.081-7.009 1.368-1.904 3.021-3.333 4.955-4.284 1.935-.982 4.136-1.474 6.607-1.474s4.688.492 6.652 1.474c1.964.951 3.615 2.381 4.955 4.284 1.368 1.876 2.395 4.211 3.079 7.009.715 2.768 1.072 5.968 1.072 9.598z"/>
</svg>
